<svg id="visual" viewBox="0 0 960 540" width="960" height="540" xmlns="http://www.w3.org/2000/svg" xmlns:xlink="http://www.w3.org/1999/xlink" version="1.1"><rect x="0" y="0" width="960" height="540" fill="#0A1428"></rect><defs><linearGradient id="grad1_0" x1="43.8%" y1="100%" x2="100%" y2="0%"><stop offset="14.444444444444446%" stop-color="#fbae3c" stop-opacity="1"></stop><stop offset="85.55555555555554%" stop-color="#fbae3c" stop-opacity="1"></stop></linearGradient></defs><defs><linearGradient id="grad1_1" x1="43.8%" y1="100%" x2="100%" y2="0%"><stop offset="14.444444444444446%" stop-color="#fbae3c" stop-opacity="1"></stop><stop offset="85.55555555555554%" stop-color="#cf5a5f" stop-opacity="1"></stop></linearGradient></defs><defs><linearGradient id="grad1_2" x1="43.8%" y1="100%" x2="100%" y2="0%"><stop offset="14.444444444444446%" stop-color="#67345f" stop-opacity="1"></stop><stop offset="85.55555555555554%" stop-color="#cf5a5f" stop-opacity="1"></stop></linearGradient></defs><defs><linearGradient id="grad1_3" x1="43.8%" y1="100%" x2="100%" y2="0%"><stop offset="14.444444444444446%" stop-color="#67345f" stop-opacity="1"></stop><stop offset="85.55555555555554%" stop-color="#0a1428" stop-opacity="1"></stop></linearGradient></defs><defs><linearGradient id="grad2_0" x1="0%" y1="100%" x2="56.3%" y2="0%"><stop offset="14.444444444444446%" stop-color="#fbae3c" stop-opacity="1"></stop><stop offset="85.55555555555554%" stop-color="#fbae3c" stop-opacity="1"></stop></linearGradient></defs><defs><linearGradient id="grad2_1" x1="0%" y1="100%" x2="56.3%" y2="0%"><stop offset="14.444444444444446%" stop-color="#cf5a5f" stop-opacity="1"></stop><stop offset="85.55555555555554%" stop-color="#fbae3c" stop-opacity="1"></stop></linearGradient></defs><defs><linearGradient id="grad2_2" x1="0%" y1="100%" x2="56.3%" y2="0%"><stop offset="14.444444444444446%" stop-color="#cf5a5f" stop-opacity="1"></stop><stop offset="85.55555555555554%" stop-color="#67345f" stop-opacity="1"></stop></linearGradient></defs><defs><linearGradient id="grad2_3" x1="0%" y1="100%" x2="56.3%" y2="0%"><stop offset="14.444444444444446%" stop-color="#0a1428" stop-opacity="1"></stop><stop offset="85.55555555555554%" stop-color="#67345f" stop-opacity="1"></stop></linearGradient></defs><g transform="translate(960, 540)"><path d="M-297 0C-282.9 -16.9 -268.8 -33.9 -266.8 -53.1C-264.8 -72.2 -274.9 -93.6 -274.4 -113.7C-273.9 -133.7 -262.7 -152.4 -244.5 -163.3C-226.2 -174.3 -200.8 -177.5 -180.3 -180.3C-159.8 -183.1 -144.3 -185.5 -132.8 -198.7C-121.3 -212 -113.7 -236.1 -99.5 -240.2C-85.3 -244.3 -64.3 -228.3 -46.6 -234.4C-28.9 -240.5 -14.5 -268.8 0 -297L0 0Z" fill="#332648"></path><path d="M-222.7 0C-212.2 -12.7 -201.6 -25.4 -200.1 -39.8C-198.6 -54.2 -206.2 -70.2 -205.8 -85.2C-205.4 -100.3 -197 -114.3 -183.3 -122.5C-169.6 -130.7 -150.6 -133.1 -135.2 -135.2C-119.9 -137.3 -108.2 -139.1 -99.6 -149C-90.9 -159 -85.3 -177.1 -74.6 -180.2C-63.9 -183.2 -48.2 -171.2 -35 -175.8C-21.7 -180.4 -10.8 -201.6 0 -222.7L0 0Z" fill="#9f4366"></path><path d="M-148.5 0C-141.4 -8.5 -134.4 -16.9 -133.4 -26.5C-132.4 -36.1 -137.5 -46.8 -137.2 -56.8C-136.9 -66.8 -131.4 -76.2 -122.2 -81.7C-113.1 -87.1 -100.4 -88.8 -90.2 -90.2C-79.9 -91.6 -72.2 -92.7 -66.4 -99.4C-60.6 -106 -56.9 -118.1 -49.7 -120.1C-42.6 -122.1 -32.2 -114.1 -23.3 -117.2C-14.5 -120.3 -7.2 -134.4 0 -148.5L0 0Z" fill="#ef7f4f"></path><path d="M-74.2 0C-70.7 -4.2 -67.2 -8.5 -66.7 -13.3C-66.2 -18.1 -68.7 -23.4 -68.6 -28.4C-68.5 -33.4 -65.7 -38.1 -61.1 -40.8C-56.5 -43.6 -50.2 -44.4 -45.1 -45.1C-40 -45.8 -36.1 -46.4 -33.2 -49.7C-30.3 -53 -28.4 -59 -24.9 -60.1C-21.3 -61.1 -16.1 -57.1 -11.7 -58.6C-7.2 -60.1 -3.6 -67.2 0 -74.2L0 0Z" fill="#fbae3c"></path></g><g transform="translate(0, 0)"><path d="M297 0C269.6 14.7 242.2 29.3 237.4 47.2C232.5 65.1 250.1 86.2 252.2 104.5C254.4 122.7 241 138 229.5 153.3C218 168.6 208.2 183.9 195.9 195.9C183.5 207.9 168.6 216.6 155.6 232.8C142.6 249 131.5 272.7 113.7 274.4C95.8 276.1 71 255.9 50.9 256C30.8 256.1 15.4 276.5 0 297L0 0Z" fill="#332648"></path><path d="M222.8 0C202.2 11 181.7 22 178 35.4C174.3 48.8 187.6 64.7 189.2 78.4C190.8 92 180.8 103.5 172.1 115C163.5 126.5 156.2 137.9 146.9 146.9C137.6 155.9 126.4 162.5 116.7 174.6C106.9 186.8 98.7 204.5 85.2 205.8C71.8 207.1 53.3 191.9 38.2 192C23.1 192.1 11.6 207.4 0 222.8L0 0Z" fill="#9f4366"></path><path d="M148.5 0C134.8 7.3 121.1 14.7 118.7 23.6C116.2 32.6 125 43.1 126.1 52.2C127.2 61.4 120.5 69 114.7 76.7C109 84.3 104.1 91.9 97.9 97.9C91.8 103.9 84.3 108.3 77.8 116.4C71.3 124.5 65.8 136.3 56.8 137.2C47.9 138.1 35.5 127.9 25.5 128C15.4 128 7.7 138.3 0 148.5L0 0Z" fill="#ef7f4f"></path><path d="M74.3 0C67.4 3.7 60.6 7.3 59.3 11.8C58.1 16.3 62.5 21.6 63.1 26.1C63.6 30.7 60.3 34.5 57.4 38.3C54.5 42.2 52.1 46 49 49C45.9 52 42.1 54.2 38.9 58.2C35.6 62.3 32.9 68.2 28.4 68.6C23.9 69 17.8 64 12.7 64C7.7 64 3.9 69.1 0 74.3L0 0Z" fill="#fbae3c"></path></g></svg>