<svg id="visual" viewBox="0 0 900 600" width="900" height="600" xmlns="http://www.w3.org/2000/svg" xmlns:xlink="http://www.w3.org/1999/xlink" version="1.1"><path d="M0 394L82 442L164 451L245 391L327 439L409 446L491 442L573 415L655 399L736 421L818 439L900 431L900 601L818 601L736 601L655 601L573 601L491 601L409 601L327 601L245 601L164 601L82 601L0 601Z" fill="#ffbb4f"></path><path d="M0 481L82 471L164 474L245 484L327 454L409 475L491 490L573 451L655 440L736 468L818 456L900 488L900 601L818 601L736 601L655 601L573 601L491 601L409 601L327 601L245 601L164 601L82 601L0 601Z" fill="#da6868"></path><path d="M0 487L82 525L164 516L245 491L327 521L409 521L491 512L573 495L655 503L736 503L818 516L900 519L900 601L818 601L736 601L655 601L573 601L491 601L409 601L327 601L245 601L164 601L82 601L0 601Z" fill="#793f6c"></path><path d="M0 529L82 558L164 542L245 569L327 541L409 569L491 561L573 539L655 546L736 562L818 562L900 560L900 601L818 601L736 601L655 601L573 601L491 601L409 601L327 601L245 601L164 601L82 601L0 601Z" fill="#14213d"></path></svg>