<svg id="visual" viewBox="0 0 960 540" width="960" height="540" xmlns="http://www.w3.org/2000/svg" xmlns:xlink="http://www.w3.org/1999/xlink" version="1.1"><path d="M0 125L51 123L101 131L152 126L202 117L253 113L303 123L354 134L404 123L455 115L505 134L556 114L606 122L657 126L707 117L758 122L808 127L859 132L909 128L960 117L960 0L909 0L859 0L808 0L758 0L707 0L657 0L606 0L556 0L505 0L455 0L404 0L354 0L303 0L253 0L202 0L152 0L101 0L51 0L0 0Z" fill="#ffbb4f"></path><path d="M0 104L51 87L101 99L152 94L202 94L253 96L303 102L354 94L404 84L455 84L505 95L556 99L606 85L657 84L707 85L758 86L808 102L859 86L909 98L960 83L960 0L909 0L859 0L808 0L758 0L707 0L657 0L606 0L556 0L505 0L455 0L404 0L354 0L303 0L253 0L202 0L152 0L101 0L51 0L0 0Z" fill="#da6868"></path><path d="M0 66L51 58L101 56L152 70L202 66L253 65L303 70L354 61L404 54L455 60L505 53L556 71L606 62L657 54L707 57L758 66L808 62L859 66L909 63L960 61L960 0L909 0L859 0L808 0L758 0L707 0L657 0L606 0L556 0L505 0L455 0L404 0L354 0L303 0L253 0L202 0L152 0L101 0L51 0L0 0Z" fill="#793f6c"></path><path d="M0 38L51 36L101 23L152 31L202 41L253 40L303 31L354 30L404 39L455 26L505 27L556 25L606 37L657 28L707 25L758 23L808 28L859 36L909 29L960 36L960 0L909 0L859 0L808 0L758 0L707 0L657 0L606 0L556 0L505 0L455 0L404 0L354 0L303 0L253 0L202 0L152 0L101 0L51 0L0 0Z" fill="#14213d"></path></svg>