<svg id="visual" viewBox="0 0 960 540" width="960" height="540" xmlns="http://www.w3.org/2000/svg" xmlns:xlink="http://www.w3.org/1999/xlink" version="1.1"><path d="M633 540L635.8 530C638.7 520 644.3 500 635.8 480C627.3 460 604.7 440 617.7 420C630.7 400 679.3 380 690.8 360C702.3 340 676.7 320 668.7 300C660.7 280 670.3 260 672.5 240C674.7 220 669.3 200 667.2 180C665 160 666 140 652 120C638 100 609 80 599 60C589 40 598 20 602.5 10L607 0L960 0L960 10C960 20 960 40 960 60C960 80 960 100 960 120C960 140 960 160 960 180C960 200 960 220 960 240C960 260 960 280 960 300C960 320 960 340 960 360C960 380 960 400 960 420C960 440 960 460 960 480C960 500 960 520 960 530L960 540Z" fill="#14213d"></path><path d="M632 540L635.3 530C638.7 520 645.3 500 648.7 480C652 460 652 440 665.3 420C678.7 400 705.3 380 718.8 360C732.3 340 732.7 320 729.5 300C726.3 280 719.7 260 724 240C728.3 220 743.7 200 734.3 180C725 160 691 140 678.3 120C665.7 100 674.3 80 682.7 60C691 40 699 20 703 10L707 0L960 0L960 10C960 20 960 40 960 60C960 80 960 100 960 120C960 140 960 160 960 180C960 200 960 220 960 240C960 260 960 280 960 300C960 320 960 340 960 360C960 380 960 400 960 420C960 440 960 460 960 480C960 500 960 520 960 530L960 540Z" fill="#943a6d"></path><path d="M711 540L720.3 530C729.7 520 748.3 500 755.7 480C763 460 759 440 761.7 420C764.3 400 773.7 380 770.5 360C767.3 340 751.7 320 737.5 300C723.3 280 710.7 260 715.7 240C720.7 220 743.3 200 758.8 180C774.3 160 782.7 140 782.3 120C782 100 773 80 772.3 60C771.7 40 779.3 20 783.2 10L787 0L960 0L960 10C960 20 960 40 960 60C960 80 960 100 960 120C960 140 960 160 960 180C960 200 960 220 960 240C960 260 960 280 960 300C960 320 960 340 960 360C960 380 960 400 960 420C960 440 960 460 960 480C960 500 960 520 960 530L960 540Z" fill="#f7743f"></path><path d="M796 540L797.3 530C798.7 520 801.3 500 796.8 480C792.3 460 780.7 440 773.7 420C766.7 400 764.3 380 772 360C779.7 340 797.3 320 791.8 300C786.3 280 757.7 260 745.3 240C733 220 737 200 739.8 180C742.7 160 744.3 140 742.5 120C740.7 100 735.3 80 742.8 60C750.3 40 770.7 20 780.8 10L791 0L960 0L960 10C960 20 960 40 960 60C960 80 960 100 960 120C960 140 960 160 960 180C960 200 960 220 960 240C960 260 960 280 960 300C960 320 960 340 960 360C960 380 960 400 960 420C960 440 960 460 960 480C960 500 960 520 960 530L960 540Z" fill="#fca311"></path><path d="M772 540L778 530C784 520 796 500 803.8 480C811.7 460 815.3 440 822 420C828.7 400 838.3 380 830.8 360C823.3 340 798.7 320 789.8 300C781 280 788 260 801.7 240C815.3 220 835.7 200 835.2 180C834.7 160 813.3 140 799.8 120C786.3 100 780.7 80 791.5 60C802.3 40 829.7 20 843.3 10L857 0L960 0L960 10C960 20 960 40 960 60C960 80 960 100 960 120C960 140 960 160 960 180C960 200 960 220 960 240C960 260 960 280 960 300C960 320 960 340 960 360C960 380 960 400 960 420C960 440 960 460 960 480C960 500 960 520 960 530L960 540Z" fill="#f7743f"></path><path d="M864 540L866.8 530C869.7 520 875.3 500 872.5 480C869.7 460 858.3 440 856.5 420C854.7 400 862.3 380 868.2 360C874 340 878 320 870.5 300C863 280 844 260 838.7 240C833.3 220 841.7 200 844.2 180C846.7 160 843.3 140 839.2 120C835 100 830 80 829.2 60C828.3 40 831.7 20 833.3 10L835 0L960 0L960 10C960 20 960 40 960 60C960 80 960 100 960 120C960 140 960 160 960 180C960 200 960 220 960 240C960 260 960 280 960 300C960 320 960 340 960 360C960 380 960 400 960 420C960 440 960 460 960 480C960 500 960 520 960 530L960 540Z" fill="#943a6d"></path><path d="M875 540L877.5 530C880 520 885 500 889.2 480C893.3 460 896.7 440 901.3 420C906 400 912 380 914.7 360C917.3 340 916.7 320 914.5 300C912.3 280 908.7 260 903.7 240C898.7 220 892.3 200 887.7 180C883 160 880 140 877.7 120C875.3 100 873.7 80 880.3 60C887 40 902 20 909.5 10L917 0L960 0L960 10C960 20 960 40 960 60C960 80 960 100 960 120C960 140 960 160 960 180C960 200 960 220 960 240C960 260 960 280 960 300C960 320 960 340 960 360C960 380 960 400 960 420C960 440 960 460 960 480C960 500 960 520 960 530L960 540Z" fill="#14213d"></path></svg>