<svg id="visual" viewBox="0 0 960 540" width="960" height="540" xmlns="http://www.w3.org/2000/svg" xmlns:xlink="http://www.w3.org/1999/xlink" version="1.1"><rect width="960" height="540" fill="#14213D"></rect><g><g transform="translate(892 397)"><path d="M0 -61.5L53.3 -30.8L53.3 30.8L0 61.5L-53.3 30.8L-53.3 -30.8Z" fill="#f9b13b"></path></g><g transform="translate(100 446)"><path d="M0 -60L52 -30L52 30L0 60L-52 30L-52 -30Z" fill="#f9b13b"></path></g><g transform="translate(875 99)"><path d="M0 -46L39.8 -23L39.8 23L0 46L-39.8 23L-39.8 -23Z" fill="#f9b13b"></path></g><g transform="translate(517 284)"><path d="M0 -58L50.2 -29L50.2 29L0 58L-50.2 29L-50.2 -29Z" fill="#f9b13b"></path></g><g transform="translate(343 159)"><path d="M0 -55L47.6 -27.5L47.6 27.5L0 55L-47.6 27.5L-47.6 -27.5Z" fill="#f9b13b"></path></g><g transform="translate(856 252)"><path d="M0 -58L50.2 -29L50.2 29L0 58L-50.2 29L-50.2 -29Z" fill="#f9b13b"></path></g><g transform="translate(475 491)"><path d="M0 -56L48.5 -28L48.5 28L0 56L-48.5 28L-48.5 -28Z" fill="#f9b13b"></path></g><g transform="translate(313 489)"><path d="M0 -50L43.3 -25L43.3 25L0 50L-43.3 25L-43.3 -25Z" fill="#f9b13b"></path></g><g transform="translate(707 90)"><path d="M0 -58L50.2 -29L50.2 29L0 58L-50.2 29L-50.2 -29Z" fill="#f9b13b"></path></g><g transform="translate(210 107)"><path d="M0 -46L39.8 -23L39.8 23L0 46L-39.8 23L-39.8 -23Z" fill="#f9b13b"></path></g><g transform="translate(485 12)"><path d="M0 -46L39.8 -23L39.8 23L0 46L-39.8 23L-39.8 -23Z" fill="#f9b13b"></path></g><g transform="translate(26 137)"><path d="M0 -59L51.1 -29.5L51.1 29.5L0 59L-51.1 29.5L-51.1 -29.5Z" fill="#f9b13b"></path></g><g transform="translate(164 313)"><path d="M0 -52L45 -26L45 26L0 52L-45 26L-45 -26Z" fill="#f9b13b"></path></g><g transform="translate(665 320)"><path d="M0 -47L40.7 -23.5L40.7 23.5L0 47L-40.7 23.5L-40.7 -23.5Z" fill="#f9b13b"></path></g></g></svg>